<?xml version="1.0" standalone="no"?>
<!DOCTYPE svg PUBLIC "-//W3C//DTD SVG 20010904//EN"
 "http://www.w3.org/TR/2001/REC-SVG-20010904/DTD/svg10.dtd">
<svg version="1.0" xmlns="http://www.w3.org/2000/svg"
 width="1084.000000pt" height="352.000000pt" viewBox="0 0 1084.000000 352.000000"
 preserveAspectRatio="xMidYMid meet">

<g transform="translate(0.000000,352.000000) scale(0.100000,-0.100000)"
fill="#000000" stroke="none">
<path d="M1165 3473 c-207 -44 -388 -211 -460 -423 l-22 -65 -262 -6 c-143 -4
-272 -10 -284 -13 -13 -3 -29 -17 -35 -31 -9 -19 -12 -382 -12 -1446 l0 -1420
25 -24 24 -25 1168 0 c1041 0 1171 2 1191 16 l22 15 0 1442 c0 793 -4 1447 -8
1453 -20 30 -55 34 -315 34 l-265 0 -11 44 c-15 61 -80 184 -126 240 -43 53
-138 127 -208 162 -116 59 -280 78 -422 47z m463 -269 c22 -15 22 -18 22 -283
0 -296 0 -294 -62 -294 -21 0 -36 6 -42 18 -20 34 -70 75 -106 86 -19 6 -70
13 -112 16 l-78 6 0 -99 c0 -87 -2 -100 -22 -121 -28 -30 -78 -31 -104 -2 -15
17 -20 40 -22 119 -4 98 -4 99 -33 109 -17 6 -31 19 -34 33 -4 14 -18 29 -36
35 -29 11 -29 12 -29 93 0 81 0 82 28 92 17 7 33 23 40 40 l10 28 151 0 c209
0 267 20 354 120 20 24 45 26 75 4z m152 -136 c0 -19 -42 -58 -62 -58 -23 0
-23 5 3 41 20 29 59 40 59 17z m35 -148 c0 -18 -72 -27 -87 -12 -19 19 3 33
45 30 29 -2 42 -8 42 -18z m-1140 -117 c20 -180 103 -335 239 -442 81 -64 148
-97 248 -121 148 -35 292 -18 432 50 197 97 346 327 346 532 l0 38 214 0 215
0 20 -26 21 -27 -2 -1303 -3 -1303 -23 -23 -23 -23 -1027 -3 c-565 -2 -1041 0
-1059 3 -18 3 -38 16 -50 33 -17 26 -18 81 -20 1297 -1 699 0 1284 2 1301 3
17 14 40 26 52 19 21 27 22 229 22 l209 0 6 -57z m1082 5 c24 -22 29 -43 15
-52 -12 -7 -74 52 -67 64 10 16 27 12 52 -12z"/>
<path d="M1570 3161 c-6 -12 -10 -110 -10 -249 0 -191 2 -232 15 -242 8 -7 22
-10 30 -6 13 5 15 40 15 245 0 132 -3 246 -6 255 -8 22 -31 20 -44 -3z"/>
<path d="M1475 3082 c-37 -19 -72 -27 -135 -31 l-85 -6 0 -125 0 -125 75 -6
c72 -5 149 -27 177 -51 7 -6 16 -9 18 -6 3 3 4 89 3 191 l-3 185 -50 -26z"/>
<path d="M1074 3037 c-2 -7 -3 -65 -2 -128 l3 -114 68 -3 67 -3 0 131 0 130
-65 0 c-45 0 -67 -4 -71 -13z m101 -47 c0 -10 -12 -16 -32 -18 -28 -3 -33 0
-33 18 0 18 5 21 33 18 20 -2 32 -8 32 -18z m0 -70 c0 -23 -59 -20 -63 3 -3
15 2 18 30 15 21 -2 33 -8 33 -18z m3 -72 c-7 -20 -68 -23 -68 -4 0 12 10 16
36 16 24 0 34 -4 32 -12z"/>
<path d="M1000 2915 c0 -42 3 -55 15 -55 12 0 15 13 15 55 0 42 -3 55 -15 55
-12 0 -15 -13 -15 -55z"/>
<path d="M1140 2655 c0 -85 2 -95 21 -105 38 -21 49 2 49 106 l0 94 -35 0 -35
0 0 -95z"/>
<path d="M627 1383 c-13 -12 -7 -23 13 -23 17 0 20 -7 20 -50 0 -38 4 -50 15
-50 11 0 15 12 15 49 0 41 3 50 21 54 34 9 11 27 -35 27 -23 0 -46 -3 -49 -7z"/>
<path d="M780 1380 c0 -5 4 -10 9 -10 6 0 13 5 16 10 3 6 -1 10 -9 10 -9 0
-16 -4 -16 -10z"/>
<path d="M746 1353 c-11 -11 -7 -68 6 -81 7 -7 27 -12 45 -12 l33 0 0 52 c0
52 -15 58 -22 8 -2 -14 -11 -26 -20 -28 -14 -3 -18 3 -18 27 0 30 -11 46 -24
34z"/>
<path d="M1870 1275 c0 -9 5 -15 11 -13 6 2 11 8 11 13 0 5 -5 11 -11 13 -6 2
-11 -4 -11 -13z"/>
<path d="M1917 1284 c-8 -8 1 -24 14 -24 5 0 9 7 9 15 0 15 -12 20 -23 9z"/>
<path d="M1960 1274 c0 -17 22 -14 28 4 2 7 -3 12 -12 12 -9 0 -16 -7 -16 -16z"/>
<path d="M3810 3471 c-88 -20 -152 -51 -237 -115 -103 -78 -164 -162 -213
-296 l-28 -75 -273 -7 -273 -6 -23 -27 -23 -26 2 -1431 3 -1430 24 -19 c23
-18 56 -19 1191 -19 1119 0 1169 1 1191 18 l22 19 -2 1444 c-2 1256 -4 1446
-17 1459 -12 12 -62 15 -294 18 -236 2 -280 5 -280 17 0 8 -12 45 -27 82 -119
304 -426 467 -743 394z m-87 -312 c25 -11 47 -47 47 -75 0 -25 -47 -64 -76
-64 -77 0 -101 112 -31 140 30 12 32 12 60 -1z m550 -20 c58 -70 -43 -160
-110 -97 -31 29 -30 72 3 105 20 20 31 24 57 19 18 -3 40 -16 50 -27z m-188
-154 c14 -13 25 -36 25 -50 0 -33 -41 -75 -73 -75 -69 0 -104 88 -51 129 35
28 69 26 99 -4z m-283 -13 c10 -10 8 -15 -9 -27 -11 -8 -26 -27 -32 -44 -10
-24 -10 -34 3 -58 15 -29 14 -31 -15 -52 -18 -14 -29 -31 -29 -46 0 -25 -2
-25 -80 -25 l-80 0 0 114 c0 113 0 115 27 136 25 19 38 21 115 18 52 -2 92 -8
100 -16z m523 -7 c24 -23 25 -30 25 -137 l0 -113 -39 42 c-41 45 -75 63 -121
63 -30 0 -100 28 -100 41 0 3 7 12 15 19 9 7 15 29 15 55 0 23 3 45 7 48 3 4
44 7 90 7 76 0 86 -2 108 -25z m-441 -68 c16 -43 -6 -77 -49 -77 -46 0 -74 38
-56 76 22 49 88 50 105 1z m-551 -114 c13 -197 147 -392 336 -491 74 -39 208
-72 291 -72 76 0 215 32 280 65 193 97 331 296 347 496 l6 79 213 0 213 0 20
-26 c21 -27 21 -27 21 -1320 0 -961 -3 -1300 -12 -1319 -7 -16 -24 -29 -49
-35 -24 -7 -398 -9 -1069 -8 l-1031 3 -19 25 c-19 24 -20 59 -20 1329 l0 1305
22 23 c21 23 25 23 233 23 l212 0 6 -77z m792 38 c3 -5 -8 -20 -24 -33 -16
-13 -34 -33 -40 -45 -10 -19 -20 -23 -61 -23 -48 0 -49 1 -59 38 -14 48 -14
59 2 65 22 9 176 7 182 -2z m132 -42 c116 -72 56 -254 -78 -236 -108 14 -151
125 -81 208 44 53 102 63 159 28z m-345 -6 c10 -9 18 -24 18 -35 0 -16 -9 -18
-100 -18 -108 0 -122 8 -80 50 26 26 134 29 162 3z"/>
<path d="M3716 1503 c-3 -3 -6 -33 -6 -65 0 -45 3 -58 15 -58 12 0 15 13 15
59 0 56 -9 79 -24 64z"/>
<path d="M3876 1503 c-3 -3 -6 -33 -6 -65 l0 -58 38 0 c20 0 42 4 48 8 34 23
12 82 -32 82 -14 0 -24 6 -24 14 0 17 -14 28 -24 19z m64 -78 c0 -25 -23 -35
-35 -15 -10 16 2 40 20 40 9 0 15 -9 15 -25z"/>
<path d="M4363 1491 c-3 -14 -13 -21 -28 -21 -30 0 -47 -22 -43 -57 3 -26 7
-28 51 -31 l47 -3 0 60 c0 60 -16 92 -27 52z m-10 -54 c8 -20 -9 -41 -27 -34
-19 8 -21 33 -3 40 20 9 25 8 30 -6z"/>
<path d="M3127 1493 c-4 -3 -7 -30 -7 -60 l0 -53 45 0 c49 0 62 17 18 22 -26
3 -28 7 -31 51 -3 44 -10 56 -25 40z"/>
<path d="M3235 1450 c-26 -29 -7 -70 32 -70 50 0 72 33 47 69 -19 27 -55 27
-79 1z m58 -12 c6 -19 -3 -38 -18 -38 -18 0 -28 17 -21 35 7 18 33 20 39 3z"/>
<path d="M3347 1463 c-16 -15 -5 -42 21 -51 l27 -10 -27 -1 c-16 -1 -28 -6
-28 -12 0 -6 16 -9 37 -7 48 4 58 32 16 50 -27 11 -27 12 -5 15 12 3 22 9 22
14 0 10 -53 12 -63 2z"/>
<path d="M3496 1455 c-30 -31 -10 -75 34 -75 38 0 48 18 13 22 -20 2 -28 9
-28 23 0 16 6 19 29 17 19 -2 27 1 24 10 -7 20 -53 21 -72 3z"/>
<path d="M3602 1458 c-7 -7 -12 -21 -12 -33 0 -28 19 -45 50 -45 31 0 50 17
50 45 0 28 -19 45 -50 45 -14 0 -31 -5 -38 -12z m56 -36 c3 -17 -2 -22 -17
-22 -14 0 -21 6 -21 18 0 38 33 41 38 4z"/>
<path d="M3765 1460 c-4 -6 5 -10 19 -10 32 0 34 -17 4 -22 -15 -2 -23 -10
-23 -23 0 -16 8 -21 43 -23 39 -3 42 -2 42 23 0 42 -17 65 -50 65 -16 0 -32
-4 -35 -10z m44 -61 c-16 -10 -23 -4 -14 10 3 6 11 8 17 5 6 -4 5 -9 -3 -15z"/>
<path d="M4002 1458 c-7 -7 -12 -21 -12 -33 0 -29 19 -45 52 -45 36 0 56 36
39 69 -13 23 -59 29 -79 9z m56 -36 c3 -17 -2 -22 -17 -22 -14 0 -21 6 -21 18
0 38 33 41 38 4z"/>
<path d="M4110 1425 c0 -33 4 -45 15 -45 9 0 15 9 15 24 0 13 7 29 15 36 23
19 18 30 -15 30 -29 0 -30 -2 -30 -45z"/>
<path d="M4185 1460 c-4 -6 5 -10 19 -10 32 0 34 -17 4 -22 -15 -2 -23 -10
-23 -23 0 -16 8 -21 44 -23 l43 -3 -7 38 c-4 21 -9 41 -11 45 -7 12 -62 10
-69 -2z m44 -61 c-16 -10 -23 -4 -14 10 3 6 11 8 17 5 6 -4 5 -9 -3 -15z"/>
<path d="M4422 1458 c-7 -7 -12 -21 -12 -33 0 -29 19 -45 52 -45 36 0 56 36
39 69 -13 23 -59 29 -79 9z m56 -36 c3 -16 -2 -22 -16 -22 -22 0 -32 17 -24
38 7 20 37 9 40 -16z"/>
<path d="M4530 1425 c0 -33 4 -45 15 -45 10 0 15 10 15 29 0 16 6 31 15 35 26
10 16 26 -15 26 -29 0 -30 -2 -30 -45z"/>
<path d="M4612 1458 c-7 -7 -12 -21 -12 -33 0 -12 5 -26 12 -33 15 -15 64 -16
73 -2 4 6 -7 10 -25 10 -20 0 -29 4 -24 11 3 6 17 8 29 5 31 -8 41 10 19 35
-19 21 -54 25 -72 7z m53 -18 c3 -5 -1 -10 -9 -10 -8 0 -18 5 -21 10 -3 6 1
10 9 10 8 0 18 -4 21 -10z"/>
<path d="M4717 1463 c-14 -14 -6 -33 21 -47 l27 -15 -27 -1 c-16 0 -28 -5 -28
-11 0 -6 16 -9 37 -7 48 4 57 32 16 50 l-28 12 28 4 c15 2 25 8 22 13 -7 10
-58 12 -68 2z"/>
<path d="M4392 1098 c6 -18 28 -21 28 -4 0 9 -7 16 -16 16 -9 0 -14 -5 -12
-12z"/>
<path d="M4440 1094 c0 -9 5 -14 12 -12 18 6 21 28 4 28 -9 0 -16 -7 -16 -16z"/>
<path d="M4487 1104 c-8 -8 1 -24 14 -24 5 0 9 7 9 15 0 15 -12 20 -23 9z"/>
<path d="M4208 2683 c-30 -29 -40 -35 -50 -25 -7 7 -18 12 -25 12 -18 0 2 -39
23 -47 15 -5 104 71 104 89 0 16 -16 7 -52 -29z"/>
<path d="M6585 3471 c-234 -60 -392 -220 -468 -472 -5 -14 -40 -17 -282 -22
-238 -4 -280 -8 -294 -21 -15 -15 -16 -144 -19 -1452 l-2 -1435 24 -24 25 -25
1170 0 1170 0 21 22 c20 22 20 26 20 1454 0 1394 0 1432 -19 1455 l-19 24
-275 3 -276 3 -22 67 c-57 176 -180 313 -344 385 -130 58 -278 71 -410 38z
m77 -188 c9 -10 19 -33 23 -50 3 -18 13 -33 21 -33 7 0 21 -11 30 -25 14 -22
24 -25 71 -25 99 0 93 22 93 -318 0 -219 -3 -301 -12 -310 -9 -9 -85 -12 -280
-12 -254 0 -268 1 -278 19 -6 12 -10 125 -10 298 0 332 -3 323 94 323 57 0 64
2 74 25 7 15 20 25 32 25 15 0 20 7 20 27 0 59 85 98 122 56z m472 -242 c23
-25 20 -196 -4 -196 -12 0 -16 18 -18 88 -2 64 -6 87 -15 84 -9 -3 -13 -61
-17 -208 l-5 -204 -29 -37 c-15 -21 -32 -38 -37 -38 -5 0 -24 21 -44 48 l-35
47 0 199 c0 243 -3 236 110 236 62 0 80 -4 94 -19z m-1023 -279 c41 -259 221
-456 477 -521 145 -37 296 -19 442 52 77 38 213 167 254 242 42 75 76 182 83
258 l6 67 207 0 c192 0 208 -1 228 -20 11 -11 24 -37 28 -57 4 -20 5 -607 2
-1305 -6 -1424 1 -1311 -80 -1323 -24 -3 -501 -5 -1061 -3 l-1019 3 -19 24
c-18 23 -19 58 -19 1332 0 1296 0 1309 20 1329 19 19 33 20 228 20 l208 0 15
-98z"/>
<path d="M6586 3248 c-26 -37 -20 -48 24 -48 33 0 40 3 40 19 0 20 -25 51 -40
51 -5 0 -16 -10 -24 -22z"/>
<path d="M6520 3130 l0 -30 90 0 90 0 0 30 0 30 -90 0 -90 0 0 -30z"/>
<path d="M6362 2828 l3 -283 248 -3 247 -2 0 285 0 285 -58 0 c-50 0 -59 -3
-67 -22 -9 -22 -17 -23 -117 -26 -103 -3 -107 -2 -126 23 -17 21 -28 25 -76
25 l-56 0 2 -282z m168 179 c0 -7 -13 -26 -30 -42 -28 -27 -30 -27 -55 -11
-36 23 -34 50 3 41 20 -4 33 -1 42 10 15 18 40 20 40 2z m275 -27 c0 -12 -20
-15 -110 -18 -109 -2 -144 5 -130 27 4 8 44 11 123 9 96 -2 117 -6 117 -18z
m-275 -92 c0 -15 -50 -68 -64 -68 -17 0 -46 32 -46 52 0 10 7 18 15 18 8 0 15
-4 15 -10 0 -15 26 -12 40 5 15 18 40 20 40 3z m264 -4 c24 -9 19 -31 -9 -38
-29 -7 -225 4 -225 14 0 22 32 30 121 30 54 0 104 -3 113 -6z m-264 -113 c0
-11 -14 -31 -31 -45 -29 -24 -31 -25 -55 -10 -13 9 -24 25 -24 35 0 21 20 25
37 8 8 -8 16 -5 30 9 23 26 43 27 43 3z m264 -7 c9 -3 16 -12 16 -20 0 -11
-25 -14 -125 -14 -102 0 -125 3 -125 14 0 8 8 17 18 19 26 7 198 8 216 1z
m-264 -111 c0 -22 -39 -63 -60 -63 -9 0 -27 11 -40 25 -20 22 -21 25 -6 31 9
3 22 1 30 -5 10 -8 17 -6 31 9 22 24 45 26 45 3z m275 -23 c0 -12 -21 -16
-114 -18 -111 -3 -141 4 -126 27 4 8 45 11 123 9 96 -2 117 -6 117 -18z"/>
<path d="M6980 2925 l0 -95 35 0 35 0 0 95 0 95 -35 0 -35 0 0 -95z"/>
<path d="M6979 2743 c-1 -27 -2 -59 -3 -73 -1 -22 4 -25 37 -28 l37 -3 0 75 0
76 -35 0 c-35 0 -35 0 -36 -47z"/>
<path d="M7000 2589 c0 -5 5 -7 10 -4 6 3 10 8 10 11 0 2 -4 4 -10 4 -5 0 -10
-5 -10 -11z"/>
<path d="M5890 1565 c0 -37 4 -65 10 -65 6 0 10 14 10 30 0 38 9 38 45 0 15
-16 32 -27 37 -24 14 9 10 126 -4 122 -7 -3 -14 -17 -16 -31 -4 -35 -13 -34
-40 3 -13 17 -27 30 -32 30 -6 0 -10 -29 -10 -65z"/>
<path d="M6770 1564 c0 -48 3 -65 13 -62 6 3 13 15 15 29 2 13 5 30 8 38 8 23
34 -8 34 -40 0 -16 5 -29 10 -29 6 0 10 20 10 44 0 36 -4 46 -20 51 -11 3 -24
3 -30 0 -5 -3 -10 3 -10 14 0 12 -7 21 -15 21 -12 0 -15 -14 -15 -66z"/>
<path d="M6353 1600 c-8 -12 -9 -21 -3 -25 6 -3 10 -16 10 -29 0 -25 17 -46
37 -46 7 0 13 7 13 15 0 8 -4 15 -10 15 -5 0 -10 11 -10 25 0 14 5 25 12 25 6
0 3 9 -7 20 -22 25 -27 25 -42 0z"/>
<path d="M6035 1576 c-29 -44 18 -91 65 -66 27 14 27 65 1 80 -31 16 -49 12
-66 -14z m53 -24 c3 -17 -2 -22 -17 -22 -14 0 -21 6 -21 18 0 38 33 41 38 4z"/>
<path d="M6152 1591 c-21 -13 -10 -46 16 -49 12 -2 20 -7 17 -12 -3 -4 -14 -6
-25 -3 -24 6 -27 -15 -4 -24 21 -8 64 13 64 32 0 8 -11 17 -25 21 -30 7 -33
24 -4 24 11 0 17 5 14 10 -8 12 -35 13 -53 1z"/>
<path d="M6246 1581 c-34 -38 12 -94 59 -73 31 14 38 49 14 73 -24 24 -51 24
-73 0z m53 -10 c17 -11 7 -41 -13 -41 -19 0 -29 17 -22 35 6 17 15 18 35 6z"/>
<path d="M6434 1585 c-8 -21 0 -80 11 -80 6 0 11 12 13 27 2 14 10 32 18 38 8
7 14 16 14 20 0 13 -51 8 -56 -5z"/>
<path d="M6517 1582 c-24 -26 -21 -49 8 -68 37 -24 75 -6 75 35 0 47 -52 68
-83 33z m53 -17 c13 -16 6 -35 -15 -35 -18 0 -28 17 -21 35 7 19 20 19 36 0z"/>
<path d="M6632 1591 c-21 -13 -10 -44 18 -52 25 -7 25 -7 -3 -8 -32 -1 -33
-24 -1 -29 49 -7 68 48 21 63 l-22 8 23 4 c12 2 22 9 22 14 0 11 -40 12 -58 0z"/>
<path d="M6897 1594 c-11 -11 3 -24 18 -17 8 3 15 0 15 -6 0 -6 -6 -11 -14
-11 -7 0 -19 -7 -26 -15 -19 -22 4 -43 45 -42 33 1 35 3 35 37 0 20 -5 41 -12
48 -13 13 -50 16 -61 6z m43 -58 c0 -11 -19 -15 -25 -6 -3 5 1 10 9 10 9 0 16
-2 16 -4z"/>
<path d="M7018 1589 c-25 -14 -23 -65 2 -79 22 -12 60 -5 60 11 0 5 -11 9 -24
9 -14 0 -28 5 -31 10 -11 18 16 41 38 34 14 -4 18 -2 15 7 -6 18 -38 22 -60 8z"/>
<path d="M7118 1589 c-11 -6 -18 -22 -18 -38 0 -22 7 -31 29 -41 29 -12 51 -7
51 10 0 5 -12 11 -27 13 -26 4 -26 4 5 6 24 1 32 6 32 19 0 37 -36 52 -72 31z
m42 -19 c0 -5 -7 -10 -15 -10 -8 0 -15 5 -15 10 0 6 7 10 15 10 8 0 15 -4 15
-10z"/>
<path d="M7220 1550 c0 -28 5 -50 10 -50 6 0 10 13 10 29 0 32 26 63 34 40 3
-8 6 -24 8 -37 4 -31 22 -33 26 -2 6 46 11 54 27 40 8 -7 15 -23 15 -36 0 -12
5 -26 10 -29 16 -10 22 19 12 56 l-8 34 -72 2 -72 3 0 -50z"/>
<path d="M7418 1589 c-26 -15 -22 -56 7 -75 23 -15 27 -15 50 0 59 39 4 111
-57 75z m50 -37 c3 -17 -2 -22 -17 -22 -14 0 -21 6 -21 18 0 38 33 41 38 4z"/>
<path d="M7520 1585 c-14 -17 -6 -33 24 -45 19 -8 18 -9 -9 -9 -27 -1 -28 -2
-13 -17 11 -11 25 -14 42 -10 36 9 35 43 -1 58 l-28 12 28 4 c15 2 25 8 22 13
-9 14 -51 11 -65 -6z"/>
<path d="M7177 1344 c-8 -8 1 -24 14 -24 5 0 9 7 9 15 0 15 -12 20 -23 9z"/>
<path d="M6934 1326 c-9 -25 1 -109 14 -114 9 -3 12 14 12 62 0 61 -13 87 -26
52z"/>
<path d="M6080 1270 l0 -60 36 0 c19 0 44 4 54 10 26 14 34 57 15 86 -12 19
-24 24 -60 24 l-45 0 0 -60z m78 28 c28 -28 -6 -78 -44 -64 -14 5 -20 57 -7
69 10 11 38 8 51 -5z"/>
<path d="M6332 1313 c-11 -20 -5 -71 11 -90 5 -7 19 -13 31 -13 20 1 20 2 4
14 -20 15 -24 52 -6 58 8 3 5 12 -9 27 -20 22 -22 22 -31 4z"/>
<path d="M6577 1270 c-18 -43 -22 -60 -12 -60 7 0 18 7 25 15 16 19 39 19 61
-1 32 -29 37 -10 11 49 -33 76 -51 75 -85 -3z m53 5 c0 -8 -4 -15 -10 -15 -5
0 -10 7 -10 15 0 8 5 15 10 15 6 0 10 -7 10 -15z"/>
<path d="M7101 1317 c-25 -31 20 -131 46 -103 4 5 2 11 -4 13 -17 6 -17 50 -1
55 8 3 5 12 -8 26 -18 19 -23 20 -33 9z"/>
<path d="M6238 1303 c-27 -7 -22 -23 7 -23 14 0 25 -4 25 -10 0 -5 -12 -10
-26 -10 -21 0 -25 -4 -22 -22 3 -20 9 -23 43 -23 39 0 40 1 38 35 -1 30 -25
62 -42 59 -3 -1 -14 -3 -23 -6z m32 -63 c0 -5 -4 -10 -10 -10 -5 0 -10 5 -10
10 0 6 5 10 10 10 6 0 10 -4 10 -10z"/>
<path d="M6428 1302 c-25 -5 -23 -22 2 -22 27 0 25 -18 -2 -22 -15 -2 -23 -10
-23 -23 0 -16 8 -21 43 -23 l43 -3 -3 42 c-3 44 -22 60 -60 51z m32 -62 c0 -5
-7 -10 -15 -10 -8 0 -15 5 -15 10 0 6 7 10 15 10 8 0 15 -4 15 -10z"/>
<path d="M6843 1303 c-20 -7 -15 -23 7 -23 27 0 25 -18 -2 -22 -15 -2 -23 -10
-23 -23 0 -16 8 -21 43 -23 42 -3 42 -3 42 30 0 18 -4 38 -8 44 -9 14 -43 24
-59 17z m32 -63 c-3 -5 -10 -10 -16 -10 -5 0 -9 5 -9 10 0 6 7 10 16 10 8 0
12 -4 9 -10z"/>
<path d="M7253 1299 c-24 -9 -37 -38 -27 -63 11 -29 84 -34 84 -6 0 6 -12 9
-27 8 -22 -2 -28 1 -28 17 0 14 7 20 24 20 14 0 26 5 28 11 5 15 -28 23 -54
13z"/>
<path d="M7350 1303 c-33 -13 -29 -53 6 -53 8 0 14 -4 14 -10 0 -5 -12 -10
-26 -10 -14 0 -23 -4 -19 -10 10 -16 61 -12 76 6 11 14 10 18 -6 30 -10 8 -22
14 -27 14 -4 0 -8 5 -8 11 0 6 7 9 15 6 8 -4 17 -2 20 2 4 7 -20 24 -28 20 -1
0 -9 -3 -17 -6z"/>
<path d="M6700 1255 c0 -55 27 -65 32 -12 2 20 8 32 18 32 10 0 16 -12 18 -32
4 -45 32 -45 32 0 0 43 -15 57 -62 57 l-38 0 0 -45z"/>
<path d="M6980 1296 c0 -2 7 -20 15 -39 8 -20 15 -41 15 -47 0 -5 -7 -10 -15
-10 -17 0 -20 -16 -6 -24 19 -12 38 6 64 60 31 64 32 64 12 64 -8 0 -17 -11
-21 -25 -5 -20 -9 -23 -20 -14 -8 6 -14 18 -14 25 0 8 -7 14 -15 14 -8 0 -15
-2 -15 -4z"/>
<path d="M7170 1255 c0 -33 4 -45 15 -45 11 0 15 12 15 45 0 33 -4 45 -15 45
-11 0 -15 -12 -15 -45z"/>
<path d="M7372 918 c6 -18 28 -21 28 -4 0 9 -7 16 -16 16 -9 0 -14 -5 -12 -12z"/>
<path d="M7422 918 c6 -18 28 -21 28 -4 0 9 -7 16 -16 16 -9 0 -14 -5 -12 -12z"/>
<path d="M7470 914 c0 -17 22 -14 28 4 2 7 -3 12 -12 12 -9 0 -16 -7 -16 -16z"/>
<path d="M9370 3474 c-210 -46 -399 -220 -461 -425 l-20 -66 -277 -5 c-270 -6
-276 -6 -294 -28 -17 -21 -18 -87 -16 -1462 3 -1412 3 -1440 22 -1454 17 -12
195 -14 1192 -14 l1173 0 21 28 22 27 -4 1433 c-3 1347 -5 1433 -21 1450 -16
15 -48 18 -294 22 l-277 5 -16 56 c-29 96 -80 179 -160 259 -158 158 -372 221
-590 174z m198 -187 c6 -7 12 -30 14 -51 3 -36 6 -39 60 -61 l56 -23 23 24
c35 38 57 40 91 7 50 -47 52 -58 18 -96 l-29 -34 22 -59 c22 -57 24 -59 62
-62 54 -5 65 -17 65 -71 0 -57 -12 -71 -64 -71 -40 0 -41 -1 -63 -57 l-22 -57
24 -32 c33 -43 31 -60 -6 -95 -39 -36 -58 -36 -93 0 l-27 29 -42 -21 c-23 -11
-49 -23 -57 -27 -9 -4 -16 -24 -18 -46 -5 -53 -17 -64 -71 -64 -58 0 -71 12
-71 67 0 40 -2 43 -37 52 -21 6 -47 17 -59 25 -19 14 -23 13 -49 -14 -35 -37
-55 -38 -94 -4 -38 32 -40 65 -6 102 15 16 23 33 19 42 -4 8 -14 34 -22 58
-14 40 -16 42 -56 42 -54 0 -66 13 -66 71 0 54 11 66 65 71 37 3 40 5 62 62
l24 59 -25 26 c-15 15 -26 37 -26 48 0 19 60 83 79 83 4 0 22 -13 40 -29 l32
-29 57 22 c55 21 57 24 60 61 2 22 8 45 14 52 14 17 102 17 116 0z m-688 -469
c1 -102 57 -250 132 -349 112 -148 317 -249 503 -249 37 0 103 9 148 21 188
48 333 164 421 337 29 56 66 197 66 250 l0 32 209 0 210 0 20 -26 21 -27 0
-1303 c0 -1278 0 -1304 -19 -1323 -11 -11 -35 -23 -53 -26 -18 -3 -493 -4
-1055 -3 l-1022 3 -23 23 -23 23 2 1297 c2 713 3 1303 3 1310 0 6 9 21 20 32
19 19 33 20 230 20 l210 0 0 -42z"/>
<path d="M9480 3228 c0 -54 -6 -62 -55 -78 -22 -7 -55 -21 -74 -32 l-34 -19
-34 33 -33 32 -22 -22 -22 -22 32 -33 33 -34 -25 -48 c-15 -26 -26 -56 -26
-66 0 -29 -29 -49 -71 -49 -37 0 -39 -2 -39 -30 0 -29 2 -30 44 -30 49 0 61
-10 70 -61 4 -21 15 -48 26 -62 26 -33 26 -35 -12 -74 l-32 -33 21 -22 22 -21
31 32 c17 17 35 31 40 31 4 0 28 -11 51 -25 24 -14 53 -25 65 -25 31 0 44 -20
44 -67 0 -41 1 -43 30 -43 29 0 30 2 30 43 0 47 13 67 45 67 20 0 48 12 92 40
21 13 25 12 58 -20 l35 -34 22 22 22 22 -33 34 -33 34 19 33 c10 19 25 54 33
79 15 44 16 45 65 50 45 5 50 7 50 30 0 23 -5 25 -50 30 l-49 5 -16 50 c-8 28
-24 63 -34 78 l-19 28 34 35 33 34 -22 22 -22 22 -34 -33 c-35 -34 -35 -34
-62 -16 -14 9 -49 25 -78 34 l-51 18 -3 51 c-3 50 -4 52 -33 52 -28 0 -29 -2
-29 -42z m111 -184 c51 -25 79 -54 100 -102 43 -98 10 -194 -86 -253 -35 -22
-147 -26 -181 -6 -70 41 -113 109 -114 180 0 41 36 122 66 148 56 48 152 63
215 33z"/>
<path d="M9450 3009 c-104 -41 -131 -180 -52 -260 112 -112 297 -11 268 146
-17 91 -127 149 -216 114z m80 -33 c0 -7 -7 -30 -15 -49 -20 -47 -20 -47 14
-47 38 0 44 -18 24 -77 -19 -58 -38 -82 -54 -66 -8 8 -6 19 5 41 23 44 20 62
-8 62 -41 0 -48 20 -25 81 11 29 23 57 25 61 9 13 34 9 34 -6z"/>
<path d="M8830 1670 l0 -60 43 0 c50 0 77 22 77 63 0 34 -34 57 -82 57 l-38 0
0 -60z m80 26 c20 -26 8 -61 -22 -64 -27 -3 -28 -1 -28 37 0 33 3 41 19 41 10
0 24 -7 31 -14z"/>
<path d="M9081 1702 c-6 -11 -6 -23 -1 -28 4 -5 10 -20 12 -34 2 -17 10 -26
26 -28 25 -4 30 13 7 22 -20 7 -19 33 3 45 16 9 16 11 -3 25 -26 20 -32 20
-44 -2z"/>
<path d="M8780 1685 c0 -8 5 -15 10 -15 6 0 10 7 10 15 0 8 -4 15 -10 15 -5 0
-10 -7 -10 -15z"/>
<path d="M8980 1690 c0 -5 9 -10 20 -10 27 0 25 -18 -2 -22 -15 -2 -23 -10
-23 -23 0 -16 8 -21 43 -23 42 -3 42 -3 42 30 0 19 -5 39 -12 46 -14 14 -68
16 -68 2z m44 -61 c-3 -5 -10 -7 -15 -3 -5 3 -7 10 -3 15 3 5 10 7 15 3 5 -3
7 -10 3 -15z"/>
<path d="M9166 1684 c-32 -32 -13 -74 34 -74 31 0 50 17 50 45 0 43 -53 61
-84 29z m51 -15 c14 -14 6 -39 -12 -39 -18 0 -28 17 -21 35 6 18 18 19 33 4z"/>
<path d="M9277 1693 c-16 -15 -5 -42 21 -51 l27 -10 -27 -1 c-40 -1 -34 -21 6
-21 50 0 57 35 11 55 -19 8 -19 9 3 12 12 3 22 9 22 14 0 10 -53 12 -63 2z"/>
<path d="M10170 1688 c1 -7 7 -24 15 -38 19 -33 19 -60 0 -60 -8 0 -15 -5 -15
-11 0 -6 10 -9 23 -7 33 5 89 128 58 128 -5 0 -12 -11 -15 -25 -4 -14 -10 -25
-15 -25 -4 0 -13 11 -19 25 -12 26 -32 34 -32 13z"/>
<path d="M8780 1630 c0 -16 0 -33 -1 -37 0 -4 4 -9 10 -11 7 -2 11 12 11 37 0
23 -4 41 -10 41 -5 0 -10 -13 -10 -30z"/>
<path d="M10060 1420 c0 -15 -7 -20 -29 -20 -33 0 -47 -25 -36 -60 5 -16 15
-20 46 -20 l39 0 0 60 c0 33 -4 60 -10 60 -5 0 -10 -9 -10 -20z m-5 -60 c0
-29 -32 -41 -41 -16 -9 24 4 48 23 44 12 -2 18 -12 18 -28z"/>
<path d="M10122 1388 c-32 -32 12 -91 49 -67 11 7 9 9 -8 9 -12 0 -25 5 -28
10 -4 6 8 10 29 10 23 0 36 5 36 13 0 19 -21 37 -45 37 -12 0 -26 -5 -33 -12z
m48 -13 c0 -8 -7 -15 -15 -15 -8 0 -15 7 -15 15 0 8 7 15 15 15 8 0 15 -7 15
-15z"/>
<path d="M8720 1130 c0 -5 5 -10 10 -10 6 0 10 5 10 10 0 6 -4 10 -10 10 -5 0
-10 -4 -10 -10z"/>
<path d="M9320 1130 c0 -5 5 -10 10 -10 6 0 10 5 10 10 0 6 -4 10 -10 10 -5 0
-10 -4 -10 -10z"/>
<path d="M9267 1109 c-3 -13 -11 -19 -19 -17 -25 10 -58 -10 -58 -35 0 -33 18
-47 62 -47 l38 0 0 60 c0 59 -12 80 -23 39z m-9 -57 c3 -18 -1 -22 -22 -22
-19 0 -26 5 -26 18 0 39 43 43 48 4z"/>
<path d="M10180 1070 c0 -33 4 -60 10 -60 6 0 10 27 10 60 0 33 -4 60 -10 60
-6 0 -10 -27 -10 -60z"/>
<path d="M9482 1105 c-13 -24 11 -89 35 -93 14 -3 16 -1 6 9 -15 15 -17 56 -4
61 4 2 0 11 -10 21 -16 17 -18 17 -27 2z"/>
<path d="M8720 1056 c0 -25 5 -46 10 -46 6 0 10 18 10 39 0 22 -4 43 -10 46
-6 4 -10 -12 -10 -39z"/>
<path d="M8798 1092 c-25 -3 -28 -7 -28 -43 0 -21 5 -39 10 -39 6 0 10 11 10
24 0 26 24 51 40 41 5 -3 10 -19 10 -36 0 -19 5 -29 15 -29 28 0 13 72 -17 82
-7 2 -25 2 -40 0z"/>
<path d="M9006 1093 c-3 -3 -28 -5 -56 -4 l-50 1 0 -40 c0 -48 17 -54 22 -7 2
20 8 32 18 32 10 0 16 -12 18 -32 4 -41 22 -44 22 -4 0 17 6 31 16 35 23 9 34
-2 34 -35 0 -16 5 -29 10 -29 19 0 11 69 -9 79 -10 6 -21 7 -25 4z"/>
<path d="M9385 1090 c-17 -8 -16 -9 9 -9 20 -1 27 -5 23 -16 -4 -8 -2 -17 4
-20 13 -9 1 -25 -18 -25 -9 0 -13 6 -9 15 3 9 0 15 -10 15 -9 0 -14 -7 -12
-17 2 -13 14 -19 41 -21 35 -3 37 -2 37 27 0 16 -7 37 -16 45 -17 18 -21 18
-49 6z"/>
<path d="M9573 1089 c-43 -16 -24 -79 23 -79 28 0 46 23 42 51 -4 26 -35 40
-65 28z m45 -37 c3 -18 -1 -22 -22 -22 -19 0 -26 5 -26 18 0 39 43 43 48 4z"/>
<path d="M9720 1035 c0 -63 12 -86 23 -44 4 14 11 20 20 16 22 -8 57 21 57 47
0 32 -19 46 -62 46 l-38 0 0 -65z m68 17 c3 -17 -2 -22 -17 -22 -14 0 -21 6
-21 18 0 38 33 41 38 4z"/>
<path d="M9845 1090 c-4 -6 5 -10 19 -10 14 0 26 -4 26 -10 0 -5 -8 -10 -19
-10 -10 0 -25 -7 -32 -16 -11 -14 -10 -18 6 -30 11 -8 26 -12 33 -9 8 3 20 5
28 5 21 0 19 76 -2 84 -24 9 -52 7 -59 -4z m45 -54 c0 -11 -19 -15 -25 -6 -3
5 1 10 9 10 9 0 16 -2 16 -4z"/>
<path d="M9957 1093 c-4 -3 -7 -24 -7 -45 0 -27 4 -38 15 -38 10 0 15 10 15
29 0 16 6 31 15 35 8 3 15 10 15 16 0 11 -43 14 -53 3z"/>
<path d="M10027 1093 c-14 -13 -6 -20 18 -15 15 2 25 0 25 -7 0 -6 -8 -11 -19
-11 -10 0 -25 -7 -32 -16 -11 -14 -11 -18 3 -28 10 -7 31 -11 48 -8 26 4 30 8
30 36 0 18 -5 37 -12 44 -13 13 -50 16 -61 5z m43 -57 c0 -11 -19 -15 -25 -6
-3 5 1 10 9 10 9 0 16 -2 16 -4z"/>
<path d="M10235 1090 c-7 -11 0 -13 28 -11 9 1 17 -3 17 -8 0 -6 -9 -11 -20
-11 -11 0 -23 -7 -26 -15 -10 -24 13 -43 49 -40 26 2 33 7 35 28 5 40 -14 67
-48 67 -16 0 -32 -4 -35 -10z m48 -57 c-7 -2 -19 -2 -25 0 -7 3 -2 5 12 5 14
0 19 -2 13 -5z"/>
<path d="M9087 1083 c-11 -11 -8 -48 5 -61 15 -15 54 -16 63 -2 4 6 -7 10 -26
10 -27 0 -30 2 -19 15 9 11 9 15 1 15 -7 0 -9 5 -6 10 10 16 38 12 31 -5 -4
-10 1 -15 15 -15 15 0 19 5 15 16 -3 9 -6 18 -6 20 0 7 -66 5 -73 -3z"/>
<path d="M9320 1050 c0 -22 5 -40 10 -40 6 0 10 18 10 40 0 22 -4 40 -10 40
-5 0 -10 -18 -10 -40z"/>
<path d="M9240 835 c0 -9 5 -15 11 -13 6 2 11 8 11 13 0 5 -5 11 -11 13 -6 2
-11 -4 -11 -13z"/>
<path d="M9707 819 c-4 -15 -11 -20 -22 -16 -17 7 -55 -25 -55 -46 0 -31 25
-48 65 -45 l40 3 0 59 c0 60 -17 87 -28 45z m-7 -58 c0 -11 -4 -22 -8 -25 -14
-9 -35 12 -29 28 9 23 37 20 37 -3z"/>
<path d="M9922 814 c-6 -10 -5 -29 1 -48 5 -17 11 -37 13 -43 4 -15 44 -18 44
-4 0 5 -7 11 -15 15 -19 7 -19 30 0 46 13 11 12 15 -6 31 -27 23 -26 23 -37 3z"/>
<path d="M8968 802 c-26 -3 -28 -7 -28 -48 0 -24 5 -44 10 -44 6 0 10 9 10 19
0 30 11 51 26 51 9 0 14 -12 14 -35 0 -46 27 -49 32 -2 2 20 8 32 18 32 10 0
16 -12 18 -32 2 -21 9 -33 18 -33 16 0 20 56 5 78 -8 13 -70 20 -123 14z"/>
<path d="M9142 794 c-26 -18 -28 -46 -6 -68 19 -20 64 -21 64 -2 0 9 -7 12
-19 9 -10 -3 -22 0 -25 6 -5 7 5 11 28 11 41 0 45 11 16 40 -24 24 -29 24 -58
4z m38 -14 c0 -5 -7 -10 -16 -10 -8 0 -12 5 -9 10 3 6 10 10 16 10 5 0 9 -4 9
-10z"/>
<path d="M9246 803 c-3 -3 -6 -26 -6 -51 0 -30 -5 -49 -17 -57 -11 -8 -12 -14
-5 -19 22 -13 52 32 52 78 0 43 -10 63 -24 49z"/>
<path d="M9312 799 c-25 -9 -31 -56 -10 -77 34 -34 102 14 79 56 -13 24 -39
32 -69 21z m45 -35 c7 -20 -17 -37 -34 -23 -15 13 -6 39 13 39 8 0 17 -7 21
-16z"/>
<path d="M9410 761 c0 -28 5 -51 10 -51 6 0 10 10 10 22 0 12 10 32 22 45 17
19 18 23 6 23 -9 0 -23 3 -32 6 -13 5 -16 -2 -16 -45z"/>
<path d="M9493 803 c-21 -8 -14 -25 7 -18 29 9 25 -14 -5 -25 -44 -17 -22 -50
32 -50 32 0 33 1 33 40 0 48 -27 70 -67 53z m37 -63 c0 -5 -7 -10 -15 -10 -8
0 -15 5 -15 10 0 6 7 10 15 10 8 0 15 -4 15 -10z"/>
<path d="M9780 797 c-32 -16 -37 -48 -11 -71 22 -20 62 -18 69 3 3 9 -1 11
-16 7 -11 -4 -23 -2 -27 4 -4 6 6 10 25 10 36 0 39 24 5 46 -16 11 -25 11 -45
1z m35 -17 c3 -5 -1 -10 -9 -10 -9 0 -16 5 -16 10 0 6 4 10 9 10 6 0 13 -4 16
-10z"/>
<path d="M10007 804 c-12 -12 -8 -71 7 -83 7 -6 28 -10 47 -8 32 2 34 5 37 45
2 33 0 42 -12 42 -10 0 -16 -9 -16 -25 0 -14 -7 -28 -15 -32 -20 -7 -26 -1
-34 37 -3 17 -9 28 -14 24z"/>
<path d="M9455 550 c-8 -13 -1 -24 14 -19 6 3 7 10 2 18 -6 10 -10 10 -16 1z"/>
<path d="M9810 540 c0 -5 7 -10 15 -10 8 0 15 5 15 10 0 6 -7 10 -15 10 -8 0
-15 -4 -15 -10z"/>
<path d="M9915 540 c-3 -5 -1 -10 4 -10 6 0 11 5 11 10 0 6 -2 10 -4 10 -3 0
-8 -4 -11 -10z"/>
<path d="M10100 516 c0 -33 10 -57 21 -50 16 9 11 74 -6 74 -9 0 -15 -9 -15
-24z"/>
<path d="M8912 498 c-7 -7 -12 -21 -12 -33 0 -29 19 -45 52 -45 25 0 48 23 48
49 0 33 -63 54 -88 29z m56 -31 c4 -20 -25 -34 -40 -19 -15 15 -1 44 19 40 10
-2 19 -11 21 -21z"/>
<path d="M9020 465 c0 -51 15 -60 25 -15 4 16 11 32 16 35 18 11 9 25 -16 25
-23 0 -25 -4 -25 -45z"/>
<path d="M9102 498 c-31 -31 5 -89 45 -74 9 4 13 1 10 -6 -2 -7 -16 -12 -31
-11 -32 2 -31 -20 2 -25 44 -7 62 14 62 73 l0 55 -38 0 c-21 0 -43 -5 -50 -12z
m55 -24 c9 -23 -13 -40 -32 -24 -12 10 -13 16 -4 26 15 18 28 18 36 -2z"/>
<path d="M9225 500 c-3 -5 3 -10 14 -10 12 0 21 -4 21 -10 0 -5 -9 -10 -19
-10 -20 0 -35 -25 -25 -41 3 -5 23 -9 45 -9 36 0 39 2 39 29 0 47 -10 61 -40
61 -16 0 -32 -4 -35 -10z m45 -54 c0 -11 -19 -15 -25 -6 -3 5 1 10 9 10 9 0
16 -2 16 -4z"/>
<path d="M9330 466 c0 -25 5 -46 10 -46 6 0 10 7 10 16 0 8 5 24 11 35 8 16
13 18 25 8 8 -6 14 -22 14 -35 0 -13 5 -24 11 -24 6 0 9 17 7 43 -3 42 -3 42
-45 45 l-43 3 0 -45z"/>
<path d="M9450 466 c0 -35 4 -46 16 -46 12 0 14 9 12 42 -4 59 -28 63 -28 4z"/>
<path d="M9500 500 c0 -5 9 -10 21 -10 l20 0 -20 -26 c-29 -37 -27 -44 19 -44
42 0 56 16 19 22 l-21 3 21 27 c12 14 21 29 21 32 0 3 -18 6 -40 6 -22 0 -40
-4 -40 -10z"/>
<path d="M9600 501 c0 -6 11 -11 25 -11 14 0 25 -4 25 -10 0 -5 -11 -10 -24
-10 -13 0 -26 -6 -29 -12 -9 -26 6 -38 45 -38 l39 0 -3 43 c-3 41 -4 42 -40
45 -22 2 -38 -1 -38 -7z m50 -55 c0 -11 -19 -15 -25 -6 -3 5 1 10 9 10 9 0 16
-2 16 -4z"/>
<path d="M9716 495 c-34 -35 -10 -79 41 -73 33 4 33 22 0 23 -15 0 -22 6 -22
20 0 16 6 19 29 17 19 -2 27 1 24 10 -7 20 -53 21 -72 3z"/>
<path d="M9817 503 c-4 -3 -7 -24 -7 -45 0 -27 4 -38 15 -38 11 0 15 12 15 45
0 42 -7 54 -23 38z"/>
<path d="M9869 489 c-24 -46 21 -84 75 -63 19 7 21 55 4 72 -20 20 -66 14 -79
-9z m61 -24 c0 -25 -23 -35 -35 -15 -10 16 2 40 20 40 9 0 15 -9 15 -25z"/>
<path d="M9980 465 c0 -55 27 -65 32 -12 2 20 8 32 18 32 10 0 16 -12 18 -32
4 -45 32 -45 32 0 0 43 -15 57 -62 57 l-38 0 0 -45z"/>
<path d="M10100 430 c0 -5 7 -10 15 -10 8 0 15 5 15 10 0 6 -7 10 -15 10 -8 0
-15 -4 -15 -10z"/>
</g>
</svg>
